<svg width="39" height="46" viewBox="0 0 39 46" fill="none" xmlns="http://www.w3.org/2000/svg">
<rect x="16.3994" y="17.2002" width="4" height="3.2" rx="1.6" transform="rotate(90 16.3994 17.2002)" fill="#25D07D"/>
<rect x="26" y="17.2002" width="4" height="3.2" rx="1.6" transform="rotate(90 26 17.2002)" fill="#25D07D"/>
<path d="M14.8008 26.0001C16.0197 27.7049 17.5056 28.4478 19.6008 28.4001C21.7704 28.3507 23.2898 27.4643 24.4008 25.6001" stroke="#25D07D" stroke-width="3.2" stroke-linecap="round"/>
<path d="M4.67439 13.4736C2.45371 17.0275 1.57395 21.2571 2.19336 25.4017C2.81277 29.5462 4.8907 33.3338 8.0534 36.0831C11.2161 38.8324 15.256 40.363 19.4465 40.3995C22.8315 40.4291 26.1354 39.4821 28.9725 37.6971C29.6235 37.2875 30.5406 37.8737 30.3653 38.6225L29.2 43.6002" stroke="#25D07D" stroke-width="3.2" stroke-linecap="round"/>
<path d="M34.5258 32.1266C36.7465 28.5727 37.6263 24.3431 37.0068 20.1985C36.3874 16.054 34.3095 12.2664 31.1468 9.5171C27.9841 6.7678 23.9442 5.23722 19.7538 5.20065C16.3687 5.17111 13.0648 6.11807 10.2276 7.90312C9.57662 8.3127 8.65952 7.72662 8.83482 6.97774L10 2" stroke="#25D07D" stroke-width="3.2" stroke-linecap="round"/>
</svg>
